<?xml version="1.0" encoding="UTF-8"?>
<svg xmlns="http://www.w3.org/2000/svg" xmlns:xlink="http://www.w3.org/1999/xlink" width="34px" height="38px" viewBox="0 0 34 37" version="1.1">
<g id="surface1">
<path style=" stroke:none;fill-rule:nonzero;fill:rgb(32.156863%,58.039216%,81.176471%);fill-opacity:1;" d="M 21.949219 36.9375 L 22.414062 36.9375 L 30.019531 33.269531 L 30.144531 33.097656 L 30.144531 3.835938 L 30.019531 3.660156 L 22.414062 0 L 21.941406 0 Z M 21.949219 36.9375 "/>
<path style=" stroke:none;fill-rule:nonzero;fill:rgb(12.156863%,35.686275%,59.607843%);fill-opacity:1;" d="M 12.050781 36.9375 L 11.578125 36.9375 L 3.980469 33.269531 L 3.828125 33.011719 L 3.75 3.988281 L 3.980469 3.660156 L 11.578125 0 L 12.058594 0 Z M 12.050781 36.9375 "/>
<path style=" stroke:none;fill-rule:nonzero;fill:rgb(17.647059%,44.705882%,72.156863%);fill-opacity:1;" d="M 11.589844 0 L 22.410156 0 L 22.410156 36.9375 L 11.589844 36.9375 Z M 11.589844 0 "/>
<path style=" stroke:none;fill-rule:nonzero;fill:rgb(10.196078%,27.843137%,43.529412%);fill-opacity:1;" d="M 34 17.640625 L 33.742188 17.585938 L 30.074219 17.253906 L 30.019531 17.28125 L 22.410156 16.984375 L 11.589844 16.984375 L 3.980469 17.28125 L 3.980469 11.683594 L 3.972656 11.6875 L 3.980469 11.671875 L 11.589844 9.972656 L 22.410156 9.972656 L 30.019531 11.671875 L 32.816406 13.105469 L 32.816406 12.183594 L 34 12.058594 L 33.875 11.832031 L 30.132812 9.246094 L 30.019531 9.28125 L 22.410156 7.007812 L 11.589844 7.007812 L 3.980469 9.28125 L 3.980469 3.660156 L 0 8.15625 L 0 12.082031 L 0.03125 12.0625 L 1.183594 12.183594 L 1.183594 13.125 L 0 13.734375 L 0 17.640625 L 0.03125 17.640625 L 1.183594 17.652344 L 1.183594 19.296875 L 0.1875 19.308594 L 0 19.292969 L 0 23.199219 L 1.183594 23.8125 L 1.183594 24.761719 L 0.0507812 24.882812 L 0 24.847656 L 0 28.773438 L 3.980469 33.269531 L 3.980469 27.652344 L 11.589844 29.925781 L 22.410156 29.925781 L 30.039062 27.640625 L 30.140625 27.6875 L 33.839844 25.140625 L 34 24.890625 L 32.816406 24.761719 L 32.816406 23.832031 L 32.664062 23.773438 L 30.132812 25.085938 L 30.039062 25.269531 L 22.410156 26.960938 L 22.410156 26.964844 L 11.589844 26.964844 L 11.589844 26.960938 L 3.980469 25.261719 L 3.980469 19.648438 L 11.589844 19.9375 L 11.589844 19.949219 L 22.410156 19.949219 L 30.019531 19.648438 L 30.191406 19.726562 L 33.75 19.425781 L 34 19.308594 L 32.816406 19.296875 L 32.816406 17.652344 Z M 34 17.640625 "/>
<path style=" stroke:none;fill-rule:nonzero;fill:rgb(17.647059%,44.705882%,72.156863%);fill-opacity:1;" d="M 30.019531 27.652344 L 30.019531 33.269531 L 34 28.773438 L 34 24.875 L 30.042969 27.640625 Z M 30.019531 27.652344 "/>
<path style=" stroke:none;fill-rule:nonzero;fill:rgb(17.647059%,44.705882%,72.156863%);fill-opacity:1;" d="M 30.019531 25.273438 L 30.042969 25.269531 L 34 23.21875 L 34 19.296875 L 30.019531 19.648438 Z M 30.019531 25.273438 "/>
<path style=" stroke:none;fill-rule:nonzero;fill:rgb(17.647059%,44.705882%,72.156863%);fill-opacity:1;" d="M 30.042969 11.675781 L 30.019531 11.671875 L 30.019531 17.28125 L 34 17.640625 L 34 13.714844 Z M 30.042969 11.675781 "/>
<path style=" stroke:none;fill-rule:nonzero;fill:rgb(17.647059%,44.705882%,72.156863%);fill-opacity:1;" d="M 30.042969 9.308594 L 34 12.058594 L 34 8.160156 L 30.019531 3.660156 L 30.019531 9.28125 L 30.042969 9.292969 Z M 30.042969 9.308594 "/>
</g>
</svg>
