<?xml version="1.0" encoding="UTF-8"?>
<svg xmlns="http://www.w3.org/2000/svg" xmlns:xlink="http://www.w3.org/1999/xlink" width="35px" height="35px" viewBox="0 0 35 35" version="1.1">
<g id="surface1">
<path style=" stroke:none;fill-rule:nonzero;fill:rgb(98.039216%,49.411765%,7.843137%);fill-opacity:1;" d="M 17.582031 18.414062 C 17.453125 18.597656 17.339844 18.746094 17.234375 18.902344 C 15.535156 21.34375 13.835938 23.789062 12.136719 26.234375 C 10.558594 28.507812 8.976562 30.777344 7.390625 33.050781 C 7.339844 33.121094 7.257812 33.167969 7.167969 33.179688 C 4.929688 33.160156 2.699219 33.132812 0.460938 33.105469 C 0.4375 33.105469 0.410156 33.101562 0.363281 33.089844 C 0.382812 33.046875 0.402344 33.003906 0.425781 32.957031 C 1.984375 30.597656 3.542969 28.234375 5.105469 25.875 C 6.484375 23.78125 7.871094 21.6875 9.253906 19.597656 C 10.789062 17.273438 12.320312 14.945312 13.855469 12.621094 C 14.082031 12.277344 14.316406 11.941406 14.53125 11.589844 C 14.585938 11.5 14.601562 11.386719 14.578125 11.285156 C 14.164062 9.996094 13.742188 8.710938 13.324219 7.425781 C 13.140625 6.878906 12.953125 6.332031 12.785156 5.777344 C 12.730469 5.601562 12.640625 5.546875 12.457031 5.546875 C 11.050781 5.550781 9.65625 5.550781 8.253906 5.550781 C 7.988281 5.550781 7.988281 5.550781 7.988281 5.296875 C 7.988281 3.613281 7.988281 1.929688 7.984375 0.25 C 7.984375 0.0625 8.046875 0.0195312 8.226562 0.0195312 C 11.046875 0.0234375 13.867188 0.0234375 16.683594 0.0195312 C 16.820312 0.00390625 16.949219 0.0859375 16.980469 0.214844 C 18.472656 3.871094 19.957031 7.523438 21.445312 11.175781 C 23.179688 15.433594 24.914062 19.695312 26.648438 23.957031 C 27.1875 25.277344 27.730469 26.597656 28.265625 27.925781 C 28.328125 28.085938 28.390625 28.117188 28.558594 28.066406 C 30.039062 27.621094 31.519531 27.183594 32.996094 26.738281 C 33.183594 26.683594 33.25 26.722656 33.308594 26.898438 C 33.8125 28.449219 34.324219 29.992188 34.835938 31.539062 C 34.851562 31.589844 34.867188 31.644531 34.886719 31.71875 C 34.78125 31.757812 34.679688 31.800781 34.582031 31.828125 C 31.21875 32.867188 27.863281 33.910156 24.507812 34.949219 C 24.347656 35 24.300781 34.945312 24.246094 34.816406 C 23.21875 32.277344 22.195312 29.742188 21.164062 27.203125 C 20.15625 24.722656 19.148438 22.238281 18.140625 19.753906 C 17.988281 19.378906 17.839844 19.007812 17.6875 18.632812 C 17.664062 18.570312 17.632812 18.511719 17.582031 18.414062 Z M 17.582031 18.414062 "/>
</g>
</svg>
